<?xml version="1.0" encoding="UTF-8" standalone="no"?>
<svg width="98px" height="29px" viewBox="0 0 98 29" version="1.1" xmlns="http://www.w3.org/2000/svg" xmlns:xlink="http://www.w3.org/1999/xlink">
    <!-- Generator: Sketch 3.6.1 (26313) - http://www.bohemiancoding.com/sketch -->
    <title>Untitled</title>
    <desc>Created with Sketch.</desc>
    <defs></defs>
    <g id="Page-1" stroke="none" stroke-width="1" fill="none" fill-rule="evenodd">
        <path d="M97.1656329,21.673596 C97.1656329,24.9418273 94.5932942,27.4414082 90.275943,27.4414082 L76.273596,27.4414082 L76.273596,22.782565 L89.741995,22.782565 C90.5845767,22.782565 91.1044426,22.4363789 91.1044426,21.824979 C91.1044426,21.2816429 90.7582565,20.807544 89.7138307,20.6854987 C89.1282481,20.6209556 83.9143336,19.9813915 82.3077955,19.7877619 C77.7099749,19.2303437 76.1891031,16.4995809 76.1891031,13.6714166 C76.1891031,10.4067058 78.7661358,7.90360436 83.0870075,7.90360436 L96.3887678,7.90360436 L96.3887678,12.5636211 L83.6139145,12.5636211 C82.7654652,12.5636211 82.2479464,12.9180218 82.2479464,13.5235541 C82.2479464,14.0692372 82.5988265,14.5398156 83.6373847,14.6689019 C84.2264878,14.7357921 89.4439229,15.3706622 91.0492875,15.5631182 C95.6529757,16.1158424 97.1656329,18.8442582 97.1656329,21.673596 L97.1656329,21.673596 Z M21.1349539,6.47778709 C20.3334451,6.51181894 19.6305113,6.81927913 19.506119,7.579715 L19.0073764,11.5966471 C21.673596,12.0648785 23.6955574,14.3943001 23.6955574,17.182565 C23.6955574,20.3170159 21.1549036,22.8635373 18.0204526,22.8635373 C14.8871752,22.8635373 12.3430008,20.3170159 12.3430008,17.182565 C12.3430008,14.3943001 14.3626153,12.0648785 17.0253143,11.5966471 L16.5406538,7.579715 C16.4010059,6.81927913 15.7039396,6.51181894 14.8989103,6.47778709 L0,6.47778709 L2.65565801,11.245767 C3.40435876,12.5002515 4.66588433,12.5636211 4.85012573,12.5636211 L8.66169321,12.5636211 C7.74870075,14.0844929 7.23352892,15.7121542 7.23352892,17.182565 C7.23352892,23.1616094 12.0637049,28 18.0204526,28 C23.9701593,28 28.7968148,23.1616094 28.7968148,17.182565 C28.7968148,15.7121542 28.2839899,14.0844929 27.3651299,12.5636211 L31.1837385,12.5636211 C31.3691534,12.5636211 32.6341995,12.5002515 33.3770327,11.245767 L36.0385583,6.47778709 L21.1349539,6.47778709 Z M14.3989941,17.182565 C14.3989941,15.1864208 16.0196144,13.5634535 18.0204526,13.5634535 C20.0130763,13.5634535 21.6419111,15.1864208 21.6419111,17.182565 C21.6419111,19.1834032 20.0130763,20.80285 18.0204526,20.80285 C16.0196144,20.80285 14.3989941,19.1834032 14.3989941,17.182565 L14.3989941,17.182565 Z M66.7411567,27.4414082 L73.141492,27.4414082 L73.141492,0.00117351215 L66.7411567,0.00117351215 L66.7411567,27.4414082 Z M57.2005029,20.2466052 C57.2005029,21.9564124 56.2875105,22.782565 54.4204526,22.782565 L47.7302598,22.782565 L47.7302598,12.5636211 L54.4204526,12.5636211 C56.2875105,12.5636211 57.2005029,13.4214585 57.2005029,15.1770327 L57.2005029,20.2466052 Z M55.7805532,7.90360436 L47.7302598,7.90360436 L47.7302598,0 L41.3205365,0 L41.3205365,27.4414082 L55.7805532,27.4414082 C60.969824,27.4414082 63.6090528,24.913663 63.6090528,19.9321039 L63.6090528,15.4211232 C63.6090528,10.4383906 60.969824,7.90360436 55.7805532,7.90360436 L55.7805532,7.90360436 Z" id="Fill-9" fill="#004899"></path>
    </g>
</svg>