<?xml version="1.0" encoding="UTF-8" standalone="no"?>
<!-- Created with Inkscape (http://www.inkscape.org/) -->

<svg
   xmlns:dc="http://purl.org/dc/elements/1.1/"
   xmlns:cc="http://creativecommons.org/ns#"
   xmlns:rdf="http://www.w3.org/1999/02/22-rdf-syntax-ns#"
   xmlns:svg="http://www.w3.org/2000/svg"
   xmlns="http://www.w3.org/2000/svg"
   xmlns:sodipodi="http://sodipodi.sourceforge.net/DTD/sodipodi-0.dtd"
   xmlns:inkscape="http://www.inkscape.org/namespaces/inkscape"
   width="4.2333331mm"
   height="4.2333331mm"
   viewBox="0 0 14.999999 14.999998"
   id="svg4255"
   version="1.1"
   inkscape:version="0.91pre3 r13670"
   sodipodi:docname="link.svg">
  <defs
     id="defs4257">
    <pattern
       inkscape:stockid="Stripes 1:1"
       id="Strips1_1"
       patternTransform="translate(0,0) scale(10,10)"
       height="1"
       width="2"
       patternUnits="userSpaceOnUse"
       inkscape:collect="always">
      <rect
         id="rect5556"
         height="2"
         width="1"
         y="-0.5"
         x="0"
         style="fill:black;stroke:none" />
    </pattern>
  </defs>
  <sodipodi:namedview
     id="base"
     pagecolor="#ffffff"
     bordercolor="#666666"
     borderopacity="1.0"
     inkscape:pageopacity="0.0"
     inkscape:pageshadow="2"
     inkscape:zoom="45.254834"
     inkscape:cx="8.1942285"
     inkscape:cy="11.032273"
     inkscape:document-units="px"
     inkscape:current-layer="layer1"
     showgrid="false"
     fit-margin-top="0"
     fit-margin-left="0"
     fit-margin-right="0"
     fit-margin-bottom="0"
     showguides="true"
     inkscape:guide-bbox="true"
     inkscape:window-width="1920"
     inkscape:window-height="1138"
     inkscape:window-x="-8"
     inkscape:window-y="-8"
     inkscape:window-maximized="1">
    <sodipodi:guide
       orientation="0,1"
       position="-22.862445,16.948615"
       id="guide6279" />
    <sodipodi:guide
       orientation="1,0"
       position="-1.567802,15.341472"
       id="guide6283" />
    <sodipodi:guide
       orientation="0,1"
       position="18.923269,18.131651"
       id="guide6285" />
    <sodipodi:guide
       orientation="1,0"
       position="-0.0053020088,12.79683"
       id="guide6287" />
    <sodipodi:guide
       orientation="0,1"
       position="14.017019,-1.5870998"
       id="guide6289" />
    <sodipodi:guide
       orientation="0,1"
       position="5.2670194,-0.024599879"
       id="guide6291" />
    <sodipodi:guide
       orientation="1,0"
       position="5.5795194,19.537901"
       id="guide6293" />
    <sodipodi:guide
       orientation="1,0"
       position="16.735769,11.287901"
       id="guide6329" />
    <sodipodi:guide
       orientation="0,1"
       position="15.017019,7.1629002"
       id="guide6331" />
  </sodipodi:namedview>
  <metadata
     id="metadata4260">
    <rdf:RDF>
      <cc:Work
         rdf:about="">
        <dc:format>image/svg+xml</dc:format>
        <dc:type
           rdf:resource="http://purl.org/dc/dcmitype/StillImage" />
        <dc:title></dc:title>
      </cc:Work>
    </rdf:RDF>
  </metadata>
  <g
     inkscape:label="Ebene 1"
     inkscape:groupmode="layer"
     id="layer1"
     transform="translate(-182.98744,-71.50725)">
    <path
       style="opacity:0;fill:#838386;fill-opacity:1"
       d="m 181.4375,78.07649 0,-9.95536 3.30357,0 3.30357,0 0,1.65179 0,1.65178 -1.65179,0 -1.65178,0 0,6.69643 0,6.69643 6.69643,0 6.69643,0 0,-2.5 0,-2.5 1.60714,0 1.60714,0 0,4.10714 0,4.10715 -9.95536,0 -9.95535,0 0,-9.95536 z"
       id="path3414"
       inkscape:connector-curvature="0" />
    <g
       id="g6333"
       transform="matrix(0.89552239,0,0,0.8823545,19.118091,10.177189)">
      <path
         sodipodi:nodetypes="cccccccccccc"
         style="fill:#838386;fill-opacity:1;stroke:none;stroke-opacity:1"
         inkscape:connector-curvature="0"
         d="m 196.8936,85.188263 -12.55379,0 -0.0785,-14.398844 4.30847,-0.0425 0.001,-1.23964 -5.58334,0 0,16.99997 16.75,0 -0.008,-7.134084 -1.31823,-0.0023 0,5.764061 z"
         id="path3405" />
      <path
         inkscape:connector-curvature="0"
         id="path3416"
         d="m 191.99111,77.258136 -1.28429,-1.280367 1.91051,-1.907401 c 1.05078,-1.049061 1.92469,-1.922709 1.94202,-1.941435 0.0175,-0.01888 -0.54545,-0.609236 -1.25062,-1.312238 l -1.28211,-1.278202 3.84012,0 3.84008,0 0,3.824656 0,3.824652 -1.26834,-1.263081 -1.26833,-1.263081 -1.94742,1.938429 -1.94737,1.938425 -1.28426,-1.280357 z"
         style="fill:#838386;fill-opacity:1" />
    </g>
    <path
       style="opacity:0;fill:#838386;fill-opacity:1"
       d="m 181.47321,78.07649 0,-9.95536 3.30357,0 3.30357,0 0,1.65179 0,1.65178 -1.69642,0 -1.69643,0 0,6.69643 0,6.69643 6.74107,0 6.74107,0 0,-2.5 0,-2.5 1.60714,0 1.60715,0 0,4.10714 0,4.10715 -9.95536,0 -9.95536,0 0,-9.95536 z"
       id="path4220"
       inkscape:connector-curvature="0" />
    <path
       style="opacity:0;fill:#838386;fill-opacity:1"
       d="m 181.47321,78.07649 0,-9.95536 3.30357,0 3.30357,0 0,1.65179 0,1.65178 -1.69642,0 -1.69643,0 0,6.69643 0,6.69643 6.74107,0 6.74107,0 0,-2.5 0,-2.5 1.60714,0 1.60715,0 0,4.10714 0,4.10715 -9.95536,0 -9.95536,0 0,-9.95536 z"
       id="path4222"
       inkscape:connector-curvature="0" />
    <path
       style="opacity:0;fill:#838386;fill-opacity:1;stroke:#000000;stroke-opacity:1"
       d="m 181.47321,78.07649 0,-9.95536 3.30357,0 3.30357,0 0,1.65179 0,1.65178 -1.69642,0 -1.69643,0 0,6.69643 0,6.69643 6.74107,0 6.74107,0 0,-2.5 0,-2.5 1.60714,0 1.60715,0 0,4.10714 0,4.10715 -9.95536,0 -9.95536,0 0,-9.95536 z"
       id="path4224"
       inkscape:connector-curvature="0" />
    <g
       id="g6325">
      <path
         inkscape:connector-curvature="0"
         id="path4226"
         d="m 191.43353,78.03682 -1.60031,-1.60217 2.33318,-2.36818 c 1.28324,-1.30249 2.37759,-2.45116 2.43187,-2.5526 0.0889,-0.1661 -0.0585,-0.34379 -1.48361,-1.78858 l -1.58231,-1.60416 4.88114,0 4.88115,0 0,4.88746 0,4.88747 -1.60731,-1.60545 -1.60731,-1.60545 -2.4781,2.47692 c -1.36295,1.3623 -2.49834,2.47691 -2.52308,2.47691 -0.0247,0 -0.76513,-0.72098 -1.64531,-1.60217 z"
         style="opacity:0;fill:#000000;fill-opacity:0;stroke:#000000;stroke-width:0.08928572;stroke-opacity:1" />
    </g>
    <path
       style="opacity:0;fill:#838386;fill-opacity:1;stroke:#000000;stroke-width:0.04464286;stroke-opacity:1"
       d="m 0.45047324,10.491897 0,-9.9776788 3.32589286,0 3.3258929,0 0,1.6294643 c 0,0.8962054 -0.00502,1.633381 -0.011161,1.6381682 -0.00614,0.00479 -0.7544643,0.019854 -1.6629465,0.033482 l -1.6517857,0.024778 -0.011307,6.6629473 -0.011307,6.662946 6.6965742,0 6.696575,0 0,-2.5 0,-2.5 1.651786,0 1.651785,0 0,4.151786 0,4.151785 -10,0 -9.99999986,0 0,-9.977678 z"
       id="path4833"
       inkscape:connector-curvature="0"
       transform="translate(180.97321,67.62113)" />
    <path
       style="opacity:0;fill:#488386;fill-opacity:1;stroke:url(#Strips1_1);stroke-width:0.04464286;stroke-opacity:1"
       d="m 0.45047324,10.491897 0,-9.9776788 3.32589286,0 3.3258929,0 0,1.6294643 c 0,0.8962054 -0.00502,1.633381 -0.011161,1.6381682 -0.00614,0.00479 -0.7544643,0.019854 -1.6629465,0.033482 l -1.6517857,0.024778 -0.011307,6.6629473 -0.011307,6.662946 6.6965742,0 6.696575,0 0,-2.5 0,-2.5 1.651786,0 1.651785,0 0,4.151786 0,4.151785 -10,0 -9.99999986,0 0,-9.977678 z"
       id="path4835"
       inkscape:connector-curvature="0"
       transform="translate(180.97321,67.62113)" />
    <path
       style="opacity:0;fill:#488386;fill-opacity:1;stroke:#000000;stroke-width:0.04464286;stroke-opacity:1"
       d="m 0.45047324,10.491897 0,-9.9776788 3.32589286,0 3.3258929,0 0,1.6294643 c 0,0.8962054 -0.00502,1.633381 -0.011161,1.6381682 -0.00614,0.00479 -0.7544643,0.019854 -1.6629465,0.033482 l -1.6517857,0.024778 -0.011307,6.6629473 -0.011307,6.662946 6.6965742,0 6.696575,0 0,-2.5 0,-2.5 1.651786,0 1.651785,0 0,4.151786 0,4.151785 -10,0 -9.99999986,0 0,-9.977678 z"
       id="path6271"
       inkscape:connector-curvature="0"
       transform="translate(180.97321,67.62113)" />
    <path
       style="opacity:0;fill:#488386;fill-opacity:1;stroke:#000000;stroke-width:0.04464286;stroke-opacity:1"
       d="m 0.45047324,10.491897 0,-9.9776788 3.32589286,0 3.3258929,0 0,1.6294643 c 0,0.8962054 -0.00502,1.633381 -0.011161,1.6381682 -0.00614,0.00479 -0.7544643,0.019854 -1.6629465,0.033482 l -1.6517857,0.024778 -0.011307,6.6629473 -0.011307,6.662946 6.6965742,0 6.696575,0 0,-2.5 0,-2.5 1.651786,0 1.651785,0 0,4.151786 0,4.151785 -10,0 -9.99999986,0 0,-9.977678 z"
       id="path6273"
       inkscape:connector-curvature="0"
       transform="translate(180.97321,67.62113)" />
    <path
       style="opacity:0;fill:#488386;fill-opacity:1;stroke:#000000;stroke-width:0.04464286;stroke-opacity:1"
       d="m 0.45047324,10.491897 0,-9.9776788 3.32589286,0 3.3258929,0 0,1.6294643 c 0,0.8962054 -0.00502,1.633381 -0.011161,1.6381682 -0.00614,0.00479 -0.7544643,0.019854 -1.6629465,0.033482 l -1.6517857,0.024778 -0.011307,6.6629473 -0.011307,6.662946 6.6965742,0 6.696575,0 0,-2.5 0,-2.5 1.651786,0 1.651785,0 0,4.151786 0,4.151785 -10,0 -9.99999986,0 0,-9.977678 z"
       id="path6275"
       inkscape:connector-curvature="0"
       transform="translate(180.97321,67.62113)" />
    <path
       style="opacity:0;fill:#488386;fill-opacity:1;stroke:#000000;stroke-width:0.04464286;stroke-opacity:1"
       d="m 0.45047324,10.491897 0,-9.9776788 3.32589286,0 3.3258929,0 0,1.6294643 c 0,0.8962054 -0.00502,1.633381 -0.011161,1.6381682 -0.00614,0.00479 -0.7544643,0.019854 -1.6629465,0.033482 l -1.6517857,0.024778 -0.011307,6.6629473 -0.011307,6.662946 6.6965742,0 6.696575,0 0,-2.5 0,-2.5 1.651786,0 1.651785,0 0,4.151786 0,4.151785 -10,0 -9.99999986,0 0,-9.977678 z"
       id="path6277"
       inkscape:connector-curvature="0"
       transform="translate(180.97321,67.62113)" />
  </g>
</svg>
