<svg xmlns:dc="http://purl.org/dc/elements/1.1/" xmlns:cc="http://creativecommons.org/ns#" xmlns:rdf="http://www.w3.org/1999/02/22-rdf-syntax-ns#" xmlns:svg="http://www.w3.org/2000/svg" xmlns="http://www.w3.org/2000/svg" xmlns:sodipodi="http://sodipodi.sourceforge.net/DTD/sodipodi-0.dtd" xmlns:inkscape="http://www.inkscape.org/namespaces/inkscape" width="544.83496mm" height="122.11724mm" viewBox="0 0 1930.5176 432.69888" id="svg3537" version="1.1" inkscape:version="0.91pre3 r13670" sodipodi:docname="logo.svg">
  <defs id="defs3539">
    <clipPath id="clipPath3459" clipPathUnits="userSpaceOnUse">
      <path inkscape:connector-curvature="0" id="path3461" d="m 0,583.938 2284.728,0 L 2284.728,0 0,0 0,583.938 Z"/>
    </clipPath>
  </defs>
  <sodipodi:namedview id="base" pagecolor="#ffffff" bordercolor="#666666" borderopacity="1.0" inkscape:pageopacity="0.0" inkscape:pageshadow="2" inkscape:zoom="0.76041782" inkscape:cx="965.25881" inkscape:cy="216.34943" inkscape:document-units="px" inkscape:current-layer="layer1" showgrid="false" fit-margin-top="0" fit-margin-left="0" fit-margin-right="0" fit-margin-bottom="0" inkscape:window-width="1920" inkscape:window-height="1018" inkscape:window-x="-8" inkscape:window-y="-8" inkscape:window-maximized="1"/>
  <metadata id="metadata3542">
    <rdf:RDF>
      <cc:Work rdf:about="">
        <dc:format>image/svg+xml</dc:format>
        <dc:type rdf:resource="http://purl.org/dc/dcmitype/StillImage"/>
        <dc:title/>
      </cc:Work>
    </rdf:RDF>
  </metadata>
  <g inkscape:label="Ebene 1" inkscape:groupmode="layer" id="layer1" transform="translate(536.68738,-127.44134)">
    <g transform="matrix(1.25,0,0,-1.25,-999.38113,719.38184)" inkscape:label="GLX_Logo_ganz_2farbig" id="g3453">
      <g id="g3455">
        <g clip-path="url(#clipPath3459)" id="g3457">
          <g transform="translate(443.604,300.7402)" id="g3463">
            <path inkscape:connector-curvature="0" id="path3465" style="fill:#2f97da;fill-opacity:1;fill-rule:nonzero;stroke:none" d="m 0,0 c 0,20.349 6.02,39.305 16.31,55.249 l -49.943,55.945 C -58.497,80.91 -73.449,42.172 -73.449,0 c 0,-42.17 14.952,-80.909 39.824,-111.208 l 49.941,55.946 C 6.02,-39.315 0,-20.349 0,0"/>
          </g>
          <g transform="translate(542.9604,200.8564)" id="g3467">
            <path inkscape:connector-curvature="0" id="path3469" style="fill:#2f97da;fill-opacity:1;fill-rule:nonzero;stroke:none" d="m 0,0 c -16.222,0 -31.573,3.831 -45.202,10.578 l -49.92,-55.916 C -67.688,-63.101 -35.044,-73.463 0,-73.463 c 35.042,0 67.682,10.362 95.127,28.125 L 45.211,10.578 C 31.573,3.831 16.221,0 0,0"/>
          </g>
          <g transform="translate(542.9604,400.0894)" id="g3471">
            <path inkscape:connector-curvature="0" id="path3473" style="fill:#2f97da;fill-opacity:1;fill-rule:nonzero;stroke:none" d="M 0,0 C 16.221,0 31.573,-3.832 45.211,-10.586 L 95.127,45.333 C 67.682,63.094 35.042,73.463 0,73.463 c -35.044,0 -67.688,-10.369 -95.122,-28.13 l 49.92,-55.911 C -31.573,-3.832 -16.231,0 0,0"/>
          </g>
          <g transform="translate(675.833,271.834)" id="g3475">
            <path inkscape:connector-curvature="0" id="path3477" style="fill:#2f97da;fill-opacity:1;fill-rule:nonzero;stroke:none" d="m 0,0 c 0,0.242 0.405,41.164 -47.68,41.164 l -62.906,0 L 0,-82.136 0,0 Z"/>
          </g>
          <g transform="translate(1859.8311,267.0273)" id="g3479">
            <path inkscape:connector-curvature="0" id="path3481" style="fill:#7b7678;fill-opacity:1;fill-rule:nonzero;stroke:none" d="M 0,0 47.546,62.91 4.434,63.196 -23.422,24.64 l -25.717,38.556 -44.804,0 47.265,-63.204 -54.742,-73.162 43.649,0 34.01,46.417 33.726,-46.417 44.773,0 L 0,0 Z m -118.633,111.218 c 0,12.348 -10.029,21.66 -23.32,21.66 -12.566,0 -22.789,-9.721 -22.789,-21.66 0,-11.951 10.223,-21.663 22.789,-21.663 13.291,0 23.32,9.313 23.32,21.663 m -70.605,-170.749 0,122.727 -35.031,0 0,-16.831 c -9.672,12.873 -25.627,20.156 -44.508,20.156 -39.662,0 -67.354,-29.411 -67.354,-71.505 0,-40.473 28.564,-69.853 67.908,-69.853 17.116,0 32.606,6.272 42.295,16.964 l 0,-5.533 c 0,-29.238 -12.833,-42.853 -40.359,-42.853 -16.723,0 -30.457,5.755 -44.519,18.653 l -1.423,1.311 -22.02,-29.975 1.186,-1.045 c 17.255,-15.211 38.553,-22.319 67.05,-22.319 49.497,0 76.775,28.455 76.775,80.103 m -35.031,55.367 c 0,-22.315 -15.221,-37.303 -37.864,-37.303 -20.93,0 -37.316,16.139 -37.316,36.756 0,22.654 15.107,37.86 37.595,37.86 22.836,0 37.585,-14.635 37.585,-37.313 m -132.783,-0.82 c 0,41.432 -31.119,71.505 -73.997,71.505 -42.865,0 -73.987,-30.073 -73.987,-71.505 0,-41.439 31.122,-71.502 73.987,-71.502 42.878,0 73.997,30.063 73.997,71.502 m -36.686,0 c 0,-18.493 -13.071,-38.139 -37.311,-38.139 -24.224,0 -37.299,19.646 -37.299,38.139 0,18.487 13.075,38.133 37.299,38.133 24.24,0 37.311,-19.646 37.311,-38.133 m -149.233,-70.991 21.059,28.442 c -9.988,2.57 -25.718,10.639 -25.718,37.033 l 0,137.121 -36.619,0 0,-144.329 c 0,0 -1.155,-45.713 41.278,-58.267 m -64.207,70.991 c 0,41.432 -31.115,71.505 -73.983,71.505 -42.89,0 -74.013,-30.073 -74.013,-71.505 0,-41.439 31.123,-71.502 74.013,-71.502 42.868,0 73.983,30.063 73.983,71.502 m -36.682,0 c 0,-18.493 -13.076,-38.139 -37.301,-38.139 -24.244,0 -37.328,19.646 -37.328,38.139 0,18.487 13.084,38.133 37.328,38.133 24.225,0 37.301,-19.646 37.301,-38.133 m -235.772,-13.359 101.085,0 0,10.866 c 0,45.644 -24.527,73.998 -64.026,73.998 -42.871,0 -74.004,-30.073 -74.004,-71.505 0,-41.439 31.133,-71.502 74.004,-71.502 23.531,0 42.887,9.156 57.55,27.211 l 1.127,1.394 -26.578,20.082 -1.046,-1.3 c -9.611,-11.834 -20.529,-17.349 -34.388,-17.349 -17.638,0 -30.966,11.216 -33.724,28.105 m 0.019,28.372 c 3.026,17.903 14.732,28.112 32.335,28.112 19.175,0 31.011,-10.461 31.987,-28.112 l -64.322,0 z m -61.448,-69.56 0,122.727 -35.016,0 0,-16.831 c -9.685,12.873 -25.624,20.156 -44.519,20.156 -39.65,0 -67.35,-29.411 -67.35,-71.505 0,-40.473 28.555,-69.853 67.9,-69.853 17.123,0 32.616,6.272 42.302,16.964 l 0,-5.533 c 0,-29.238 -12.819,-42.853 -40.356,-42.853 -16.713,0 -30.45,5.755 -44.52,18.653 l -1.413,1.311 -22.028,-29.975 1.186,-1.045 c 17.255,-15.211 38.559,-22.319 67.047,-22.319 49.503,0 76.767,28.455 76.767,80.103 m -35.016,55.367 c 0,-22.315 -15.221,-37.303 -37.869,-37.303 -20.92,0 -37.308,16.139 -37.308,36.756 0,22.654 15.097,37.86 37.58,37.86 22.841,0 37.597,-14.635 37.597,-37.313 m 852.729,67.36 -36.679,0 0,-136.366 36.679,0 0,136.366 z"/>
          </g>
        </g>
      </g>
    </g>
  </g>
</svg>