<?xml version="1.0" encoding="UTF-8" standalone="no"?>
<!-- Created with Inkscape (http://www.inkscape.org/) -->

<svg
   xmlns:dc="http://purl.org/dc/elements/1.1/"
   xmlns:cc="http://creativecommons.org/ns#"
   xmlns:rdf="http://www.w3.org/1999/02/22-rdf-syntax-ns#"
   xmlns:svg="http://www.w3.org/2000/svg"
   xmlns="http://www.w3.org/2000/svg"
   xmlns:sodipodi="http://sodipodi.sourceforge.net/DTD/sodipodi-0.dtd"
   xmlns:inkscape="http://www.inkscape.org/namespaces/inkscape"
   width="4.891758mm"
   height="3.6688862mm"
   viewBox="0 0 17.333001 12.99999"
   id="svg5387"
   version="1.1"
   inkscape:version="0.91pre3 r13670"
   sodipodi:docname="mail.svg">
  <defs
     id="defs5389" />
  <sodipodi:namedview
     id="base"
     pagecolor="#ffffff"
     bordercolor="#666666"
     borderopacity="1.0"
     inkscape:pageopacity="0.0"
     inkscape:pageshadow="2"
     inkscape:zoom="2.8"
     inkscape:cx="6.1235473"
     inkscape:cy="4.1499877"
     inkscape:document-units="px"
     inkscape:current-layer="layer1"
     showgrid="false"
     fit-margin-top="0"
     fit-margin-left="0"
     fit-margin-right="0"
     fit-margin-bottom="0"
     inkscape:window-width="1920"
     inkscape:window-height="1018"
     inkscape:window-x="-8"
     inkscape:window-y="-8"
     inkscape:window-maximized="1" />
  <metadata
     id="metadata5392">
    <rdf:RDF>
      <cc:Work
         rdf:about="">
        <dc:format>image/svg+xml</dc:format>
        <dc:type
           rdf:resource="http://purl.org/dc/dcmitype/StillImage" />
        <dc:title></dc:title>
      </cc:Work>
    </rdf:RDF>
  </metadata>
  <g
     inkscape:label="Ebene 1"
     inkscape:groupmode="layer"
     id="layer1"
     transform="translate(-565.61921,-697.29078)">
    <g
       id="g5409">
      <g
         id="g5355"
         transform="translate(226.91784,374.87039)">
        <g
           id="g4918"
           transform="matrix(1.25,0,0,-1.25,347.95887,331.98163)">
          <path
             d="m 0,0 c -0.052,-0.035 -0.108,-0.057 -0.165,-0.079 -0.049,-0.019 -0.096,-0.039 -0.146,-0.049 -0.056,-0.011 -0.112,-0.009 -0.169,-0.009 -0.054,0.001 -0.106,-0.001 -0.159,0.01 -0.053,0.01 -0.102,0.032 -0.153,0.053 -0.055,0.022 -0.108,0.043 -0.158,0.077 -0.016,0.01 -0.034,0.012 -0.049,0.024 l -6.407,4.899 0,-6.81 c 0,-0.479 0.388,-0.867 0.867,-0.867 l 12.133,0 c 0.479,0 0.866,0.388 0.866,0.867 l 0,6.722 L 0.047,0.022 C 0.033,0.011 0.015,0.01 0,0"
             style="fill:#a8a8aa;fill-opacity:1;fill-rule:nonzero;stroke:none"
             id="path4920"
             inkscape:connector-curvature="0" />
        </g>
        <g
           id="g4922"
           transform="matrix(1.25,0,0,-1.25,356.03437,323.50414)">
          <path
             d="m 0,0 c 0,0.479 -0.388,0.867 -0.867,0.867 l -12.133,0 c -0.479,0 -0.866,-0.388 -0.866,-0.867 L -6.934,-5.345 0,0 Z"
             style="fill:#a8a8aa;fill-opacity:1;fill-rule:nonzero;stroke:none"
             id="path4924"
             inkscape:connector-curvature="0" />
        </g>
      </g>
    </g>
  </g>
</svg>
