<?xml version="1.0" encoding="UTF-8" standalone="no"?>
<svg
   xmlns:dc="http://purl.org/dc/elements/1.1/"
   xmlns:cc="http://creativecommons.org/ns#"
   xmlns:rdf="http://www.w3.org/1999/02/22-rdf-syntax-ns#"
   xmlns:svg="http://www.w3.org/2000/svg"
   xmlns="http://www.w3.org/2000/svg"
   version="1.1"
   id="svg5310"
   viewBox="0 0 13 17.3325"
   height="4.8916168mm"
   width="3.6688888mm">
  <defs
     id="defs5312">
    <clipPath
       id="clipPath4914"
       clipPathUnits="userSpaceOnUse">
      <path
         id="path4916"
         d="m 0,0 1500,0 0,1500 L 0,1500 0,0 Z" />
    </clipPath>
  </defs>
  <metadata
     id="metadata5315">
    <rdf:RDF>
      <cc:Work
         rdf:about="">
        <dc:format>image/svg+xml</dc:format>
        <dc:type
           rdf:resource="http://purl.org/dc/dcmitype/StillImage" />
        <dc:title></dc:title>
      </cc:Work>
    </rdf:RDF>
  </metadata>
  <g
     transform="translate(-371.20037,-320.25451)"
     id="layer1">
    <g
       transform="matrix(1.25,0,0,-1.25,377.70037,337.58701)"
       id="g4926">
      <path
         id="path4928"
         style="fill:#a8a8aa;fill-opacity:1;fill-rule:nonzero;stroke:none"
         d="m 0,0 c -0.136,0 -0.265,0.064 -0.347,0.173 l -3.735,5.27 -0.137,0.192 C -4.86,6.526 -5.2,7.574 -5.2,8.666 c 0,2.868 2.333,5.2 5.2,5.2 2.867,0 5.2,-2.332 5.2,-5.2 C 5.2,7.574 4.86,6.526 4.217,5.633 L 4.036,5.381 0.347,0.173 C 0.265,0.064 0.136,0 0,0 M 0,10.4 C -0.956,10.4 -1.733,9.622 -1.733,8.666 -1.733,7.71 -0.956,6.933 0,6.933 0.956,6.933 1.733,7.71 1.733,8.666 1.733,9.622 0.956,10.4 0,10.4" />
    </g>
  </g>
</svg>
