<?xml version="1.0" encoding="UTF-8" standalone="no"?>
<svg
   xmlns:dc="http://purl.org/dc/elements/1.1/"
   xmlns:cc="http://creativecommons.org/ns#"
   xmlns:rdf="http://www.w3.org/1999/02/22-rdf-syntax-ns#"
   xmlns:svg="http://www.w3.org/2000/svg"
   xmlns="http://www.w3.org/2000/svg"
   version="1.1"
   id="svg2"
   viewBox="0 0 33.999999 33.999999"
   height="9.5955553mm"
   width="9.5955553mm">
  <defs
     id="defs4" />
  <metadata
     id="metadata7">
    <rdf:RDF>
      <cc:Work
         rdf:about="">
        <dc:format>image/svg+xml</dc:format>
        <dc:type
           rdf:resource="http://purl.org/dc/dcmitype/StillImage" />
        <dc:title></dc:title>
      </cc:Work>
    </rdf:RDF>
  </metadata>
  <g
     transform="translate(-214.42857,-352.50506)"
     id="layer1">
    <g
       style="fill:#ffffff"
       transform="translate(214.35057,352.25506)"
       id="g3337">
      <path
         style="fill:#ffffff"
         d="m 17.078,0.25 c -9.389,0 -17,7.611 -17,17 0,9.389 7.611,17 17,17 9.389,0 17,-7.611 17,-17 0,-9.389 -7.611,-17 -17,-17 z m 0,31 c -7.732,0 -14,-6.268 -14,-14 0,-7.732 6.268,-14 14,-14 7.732,0 14,6.268 14,14 0,7.732 -6.268,14 -14,14 z"
         id="path3339" />
      <polygon
         style="fill:#ffffff"
         points="14,23.963 23,17.25 14,10.537 "
         id="polygon3341" />
    </g>
  </g>
</svg>
