<?xml version="1.0" encoding="UTF-8" standalone="no"?>
<!-- Created with Inkscape (http://www.inkscape.org/) -->

<svg
   xmlns:dc="http://purl.org/dc/elements/1.1/"
   xmlns:cc="http://creativecommons.org/ns#"
   xmlns:rdf="http://www.w3.org/1999/02/22-rdf-syntax-ns#"
   xmlns:svg="http://www.w3.org/2000/svg"
   xmlns="http://www.w3.org/2000/svg"
   xmlns:sodipodi="http://sodipodi.sourceforge.net/DTD/sodipodi-0.dtd"
   xmlns:inkscape="http://www.inkscape.org/namespaces/inkscape"
   width="9.5955553mm"
   height="9.5955553mm"
   viewBox="0 0 33.999999 33.999999"
   id="svg2"
   version="1.1"
   inkscape:version="0.91 r13725"
   sodipodi:docname="playgrey.svg">
  <defs
     id="defs4" />
  <sodipodi:namedview
     id="base"
     pagecolor="#ffffff"
     bordercolor="#666666"
     borderopacity="1.0"
     inkscape:pageopacity="0.0"
     inkscape:pageshadow="2"
     inkscape:zoom="5.6"
     inkscape:cx="-7.2372378"
     inkscape:cy="6.8423479"
     inkscape:document-units="px"
     inkscape:current-layer="layer1"
     showgrid="false"
     fit-margin-top="0"
     fit-margin-left="0"
     fit-margin-right="0"
     fit-margin-bottom="0"
     inkscape:window-width="1920"
     inkscape:window-height="1138"
     inkscape:window-x="-8"
     inkscape:window-y="-8"
     inkscape:window-maximized="1" />
  <metadata
     id="metadata7">
    <rdf:RDF>
      <cc:Work
         rdf:about="">
        <dc:format>image/svg+xml</dc:format>
        <dc:type
           rdf:resource="http://purl.org/dc/dcmitype/StillImage" />
        <dc:title></dc:title>
      </cc:Work>
    </rdf:RDF>
  </metadata>
  <g
     inkscape:label="Ebene 1"
     inkscape:groupmode="layer"
     id="layer1"
     transform="translate(-214.42857,-352.50506)">
    <g
       id="g3337"
       transform="translate(214.35057,352.25506)"
       style="fill:#838386;fill-opacity:1">
      <path
         id="path3339"
         d="m 17.078,0.25 c -9.389,0 -17,7.611 -17,17 0,9.389 7.611,17 17,17 9.389,0 17,-7.611 17,-17 0,-9.389 -7.611,-17 -17,-17 z m 0,31 c -7.732,0 -14,-6.268 -14,-14 0,-7.732 6.268,-14 14,-14 7.732,0 14,6.268 14,14 0,7.732 -6.268,14 -14,14 z"
         inkscape:connector-curvature="0"
         style="fill:#838386;fill-opacity:1" />
      <polygon
         id="polygon3341"
         points="14,23.963 23,17.25 14,10.537 "
         style="fill:#838386;fill-opacity:1" />
    </g>
  </g>
</svg>
